<svg width="17" height="17" viewBox="0 0 17 17" fill="none" xmlns="http://www.w3.org/2000/svg">
<path d="M2.27778 8.5H14.7222C14.9285 8.5 15.1263 8.58194 15.2722 8.72781C15.4181 8.87367 15.5 9.0715 15.5 9.27778V11.6111C15.5 12.4362 15.1722 13.2276 14.5888 13.811C14.0053 14.3944 13.214 14.7222 12.3889 14.7222H4.61111C3.78599 14.7222 2.99467 14.3944 2.41122 13.811C1.82778 13.2276 1.5 12.4362 1.5 11.6111V9.27778C1.5 9.0715 1.58194 8.87367 1.72781 8.72781C1.87367 8.58194 2.0715 8.5 2.27778 8.5V8.5Z" stroke="#8B8B8B" stroke-width="1.2" stroke-linecap="round" stroke-linejoin="round"/>
<path d="M3.83398 8.5V3.05556C3.83398 2.643 3.99787 2.24733 4.2896 1.95561C4.58132 1.66389 4.97698 1.5 5.38954 1.5H7.72287V3.25" stroke="#8B8B8B" stroke-width="1.2" stroke-linecap="round" stroke-linejoin="round"/>
<path d="M2.27734 15.5007L3.05512 14.334" stroke="#8B8B8B" stroke-width="1.2" stroke-linecap="round" stroke-linejoin="round"/>
<path d="M14.7211 15.4997L13.9434 14.333" stroke="#8B8B8B" stroke-width="1.2" stroke-linecap="round" stroke-linejoin="round"/>
</svg>
