<svg width="18" height="14" viewBox="0 0 18 14" fill="none" xmlns="http://www.w3.org/2000/svg">
<path d="M13.6151 6.77532H3.23047V3.02532C3.23161 2.64314 3.38393 2.27695 3.65417 2.00671C3.92441 1.73647 4.2906 1.58415 4.67278 1.58301H13.3266C13.7088 1.58415 14.075 1.73647 14.3452 2.00671C14.6155 2.27695 14.7678 2.64314 14.7689 3.02532V6.77532H13.6151Z" stroke="#8B8B8B" stroke-width="1.2" stroke-linecap="round" stroke-linejoin="round"/>
<path d="M1.5 13.1215V9.08301C1.50181 8.47152 1.74552 7.8856 2.1779 7.45322C2.61029 7.02083 3.19621 6.77712 3.80769 6.77531H14.1923C14.8038 6.77712 15.3897 7.02083 15.8221 7.45322C16.2545 7.8856 16.4982 8.47152 16.5 9.08301V13.1215" stroke="#8B8B8B" stroke-width="1.2" stroke-linecap="round" stroke-linejoin="round"/>
<path d="M1.5 13.1215V12.833C1.50067 12.6037 1.59205 12.384 1.7542 12.2218C1.91635 12.0597 2.13608 11.9683 2.36538 11.9676H15.6346C15.8639 11.9683 16.0837 12.0597 16.2458 12.2218C16.4079 12.384 16.4993 12.6037 16.5 12.833V13.1215" stroke="#8B8B8B" stroke-width="1.2" stroke-linecap="round" stroke-linejoin="round"/>
</svg>
