<svg width="14" height="14" viewBox="0 0 14 14" fill="none" xmlns="http://www.w3.org/2000/svg">
<path d="M1.26757 9.58546V1.44954L0.719241 1.99782C0.639197 2.07512 0.531993 2.11789 0.420715 2.11693C0.309438 2.11596 0.202993 2.07133 0.124305 1.99265C0.045617 1.91397 0.000983012 1.80753 1.60436e-05 1.69627C-0.000950925 1.585 0.0418265 1.4778 0.119135 1.39777L1.39234 0.124673C1.43177 0.0851536 1.4786 0.053799 1.53016 0.0324056C1.58172 0.0110121 1.637 0 1.69282 0C1.74865 0 1.80392 0.0110121 1.85548 0.0324056C1.90704 0.053799 1.95388 0.0851536 1.9933 0.124673L3.26651 1.39777C3.34382 1.4778 3.38659 1.585 3.38563 1.69627C3.38466 1.80753 3.34003 1.91397 3.26134 1.99265C3.18265 2.07133 3.07621 2.11596 2.96493 2.11693C2.85365 2.11789 2.74645 2.07512 2.6664 1.99782L2.11722 1.44954V9.58546L2.6664 9.03633C2.74645 8.95903 2.85365 8.91625 2.96493 8.91722C3.07621 8.91819 3.18265 8.96282 3.26134 9.0415C3.34003 9.12018 3.38466 9.22661 3.38563 9.33788C3.38659 9.44915 3.34382 9.55634 3.26651 9.63638L1.9933 10.9095C1.95388 10.949 1.90704 10.9803 1.85548 11.0017C1.80392 11.0231 1.74865 11.0341 1.69282 11.0341C1.637 11.0341 1.58172 11.0231 1.53016 11.0017C1.4786 10.9803 1.43177 10.949 1.39234 10.9095L0.119135 9.63638C0.0418265 9.55634 -0.000950925 9.44915 1.60436e-05 9.33788C0.000983012 9.22661 0.045617 9.12018 0.124305 9.0415C0.202993 8.96282 0.309438 8.91819 0.420715 8.91722C0.531993 8.91625 0.639197 8.95903 0.719241 9.03633L1.26757 9.58546ZM13.8749 12.0069L12.6017 10.7338C12.5216 10.6565 12.4144 10.6137 12.3032 10.6147C12.1919 10.6156 12.0854 10.6603 12.0067 10.739C11.9281 10.8176 11.8834 10.9241 11.8825 11.0353C11.8815 11.1466 11.9243 11.2538 12.0016 11.3338L12.5499 11.883H4.41409L4.96327 11.3338C5.04058 11.2538 5.08336 11.1466 5.08239 11.0353C5.08142 10.9241 5.03679 10.8176 4.9581 10.739C4.87942 10.6603 4.77297 10.6156 4.66169 10.6147C4.55042 10.6137 4.44321 10.6565 4.36317 10.7338L3.08996 12.0069C3.05043 12.0463 3.01908 12.0931 2.99768 12.1447C2.97629 12.1962 2.96527 12.2515 2.96527 12.3073C2.96527 12.3631 2.97629 12.4184 2.99768 12.47C3.01908 12.5215 3.05043 12.5684 3.08996 12.6078L4.36317 13.8809C4.44321 13.9582 4.55042 14.001 4.66169 14C4.77297 13.999 4.87942 13.9544 4.9581 13.8757C5.03679 13.797 5.08142 13.6906 5.08239 13.5793C5.08336 13.4681 5.04058 13.3609 4.96327 13.2808L4.41409 12.7325H12.5508L12.0024 13.2808C11.9251 13.3609 11.8823 13.4681 11.8833 13.5793C11.8843 13.6906 11.9289 13.797 12.0076 13.8757C12.0863 13.9544 12.1927 13.999 12.304 14C12.4153 14.001 12.5225 13.9582 12.6025 13.8809L13.8757 12.6078C13.9152 12.5683 13.9465 12.5214 13.9678 12.4698C13.9891 12.4183 14.0001 12.363 14 12.3072C13.9999 12.2513 13.9888 12.1961 13.9674 12.1446C13.9459 12.093 13.9145 12.0462 13.8749 12.0069ZM13.5753 2.54695C13.4627 2.54695 13.3548 2.59166 13.2752 2.67124C13.1956 2.75082 13.1509 2.85876 13.1509 2.97131V3.82004C13.1509 3.93259 13.1956 4.04053 13.2752 4.12011C13.3548 4.19969 13.4627 4.2444 13.5753 4.2444C13.6878 4.2444 13.7958 4.19969 13.8754 4.12011C13.955 4.04053 13.9997 3.93259 13.9997 3.82004V2.97131C13.9997 2.85876 13.955 2.75082 13.8754 2.67124C13.7958 2.59166 13.6878 2.54695 13.5753 2.54695ZM13.5753 5.09313C13.4627 5.09313 13.3548 5.13784 13.2752 5.21743C13.1956 5.29701 13.1509 5.40495 13.1509 5.5175V6.36623C13.1509 6.47878 13.1956 6.58671 13.2752 6.6663C13.3548 6.74588 13.4627 6.79059 13.5753 6.79059C13.6878 6.79059 13.7958 6.74588 13.8754 6.6663C13.955 6.58671 13.9997 6.47878 13.9997 6.36623V5.5175C13.9997 5.40495 13.955 5.29701 13.8754 5.21743C13.7958 5.13784 13.6878 5.09313 13.5753 5.09313ZM5.0872 4.2444C5.19976 4.2444 5.30771 4.19969 5.3873 4.12011C5.46689 4.04053 5.5116 3.93259 5.5116 3.82004V2.97131C5.5116 2.85876 5.46689 2.75082 5.3873 2.67124C5.30771 2.59166 5.19976 2.54695 5.0872 2.54695C4.97464 2.54695 4.86669 2.59166 4.7871 2.67124C4.70751 2.75082 4.6628 2.85876 4.6628 2.97131V3.82004C4.6628 3.93259 4.70751 4.04053 4.7871 4.12011C4.86669 4.19969 4.97464 4.2444 5.0872 4.2444ZM5.0872 6.79059C5.19976 6.79059 5.30771 6.74588 5.3873 6.6663C5.46689 6.58671 5.5116 6.47878 5.5116 6.36623V5.5175C5.5116 5.40495 5.46689 5.29701 5.3873 5.21743C5.30771 5.13784 5.19976 5.09313 5.0872 5.09313C4.97464 5.09313 4.86669 5.13784 4.7871 5.21743C4.70751 5.29701 4.6628 5.40495 4.6628 5.5175V6.36623C4.6628 6.47878 4.70751 6.58671 4.7871 6.6663C4.86669 6.74588 4.97464 6.79059 5.0872 6.79059ZM10.18 0.849488H11.0288C11.1414 0.849488 11.2494 0.804778 11.3289 0.725194C11.4085 0.645611 11.4532 0.537671 11.4532 0.425123C11.4532 0.312574 11.4085 0.204636 11.3289 0.125052C11.2494 0.0454682 11.1414 0.000758418 11.0288 0.000758418H10.18C10.0675 0.000758418 9.95953 0.0454682 9.87994 0.125052C9.80035 0.204636 9.75563 0.312574 9.75563 0.425123C9.75563 0.537671 9.80035 0.645611 9.87994 0.725194C9.95953 0.804778 10.0675 0.849488 10.18 0.849488ZM7.63362 0.849488H8.48242C8.59498 0.849488 8.70293 0.804778 8.78252 0.725194C8.86211 0.645611 8.90683 0.537671 8.90683 0.425123C8.90683 0.312574 8.86211 0.204636 8.78252 0.125052C8.70293 0.0454682 8.59498 0.000758418 8.48242 0.000758418H7.63362C7.52106 0.000758418 7.41311 0.0454682 7.33352 0.125052C7.25393 0.204636 7.20921 0.312574 7.20921 0.425123C7.20921 0.537671 7.25393 0.645611 7.33352 0.725194C7.41311 0.804778 7.52106 0.849488 7.63362 0.849488ZM10.18 9.33678H11.0288C11.1414 9.33678 11.2494 9.29207 11.3289 9.21249C11.4085 9.1329 11.4532 9.02496 11.4532 8.91241C11.4532 8.79987 11.4085 8.69193 11.3289 8.61234C11.2494 8.53276 11.1414 8.48805 11.0288 8.48805H10.18C10.0675 8.48805 9.95953 8.53276 9.87994 8.61234C9.80035 8.69193 9.75563 8.79987 9.75563 8.91241C9.75563 9.02496 9.80035 9.1329 9.87994 9.21249C9.95953 9.29207 10.0675 9.33678 10.18 9.33678ZM7.63362 9.33678H8.48242C8.59498 9.33678 8.70293 9.29207 8.78252 9.21249C8.86211 9.1329 8.90683 9.02496 8.90683 8.91241C8.90683 8.79987 8.86211 8.69193 8.78252 8.61234C8.70293 8.53276 8.59498 8.48805 8.48242 8.48805H7.63362C7.52106 8.48805 7.41311 8.53276 7.33352 8.61234C7.25393 8.69193 7.20921 8.79987 7.20921 8.91241C7.20921 9.02496 7.25393 9.1329 7.33352 9.21249C7.41311 9.29207 7.52106 9.33678 7.63362 9.33678ZM12.7265 0.000758418C12.6139 0.000758418 12.5059 0.0454682 12.4264 0.125052C12.3468 0.204636 12.3021 0.312574 12.3021 0.425123C12.3021 0.537671 12.3468 0.645611 12.4264 0.725194C12.5059 0.804778 12.6139 0.849488 12.7265 0.849488C12.839 0.849488 12.947 0.894197 13.0266 0.973781C13.1061 1.05336 13.1509 1.1613 13.1509 1.27385C13.1509 1.3864 13.1956 1.49434 13.2752 1.57392C13.3548 1.65351 13.4627 1.69822 13.5753 1.69822C13.6878 1.69822 13.7958 1.65351 13.8754 1.57392C13.955 1.49434 13.9997 1.3864 13.9997 1.27385C13.9997 0.936207 13.8655 0.612391 13.6267 0.373639C13.388 0.134888 13.0641 0.000758418 12.7265 0.000758418ZM5.93601 9.33678C6.04856 9.33678 6.15651 9.29207 6.2361 9.21249C6.31569 9.1329 6.36041 9.02496 6.36041 8.91241C6.36041 8.79987 6.31569 8.69193 6.2361 8.61234C6.15651 8.53276 6.04856 8.48805 5.93601 8.48805C5.82345 8.48805 5.7155 8.44334 5.63591 8.36376C5.55632 8.28417 5.5116 8.17623 5.5116 8.06369C5.5116 7.95114 5.46689 7.8432 5.3873 7.76361C5.30771 7.68403 5.19976 7.63932 5.0872 7.63932C4.97464 7.63932 4.86669 7.68403 4.7871 7.76361C4.70751 7.8432 4.6628 7.95114 4.6628 8.06369C4.6628 8.40133 4.79694 8.72515 5.03571 8.9639C5.27448 9.20265 5.59833 9.33678 5.93601 9.33678ZM13.5753 7.63932C13.4627 7.63932 13.3548 7.68403 13.2752 7.76361C13.1956 7.8432 13.1509 7.95114 13.1509 8.06369C13.1509 8.17623 13.1061 8.28417 13.0266 8.36376C12.947 8.44334 12.839 8.48805 12.7265 8.48805C12.6139 8.48805 12.5059 8.53276 12.4264 8.61234C12.3468 8.69193 12.3021 8.79987 12.3021 8.91241C12.3021 9.02496 12.3468 9.1329 12.4264 9.21249C12.5059 9.29207 12.6139 9.33678 12.7265 9.33678C13.0641 9.33678 13.388 9.20265 13.6267 8.9639C13.8655 8.72515 13.9997 8.40133 13.9997 8.06369C13.9997 7.95114 13.955 7.8432 13.8754 7.76361C13.7958 7.68403 13.6878 7.63932 13.5753 7.63932ZM5.0872 1.69822C5.19976 1.69822 5.30771 1.65351 5.3873 1.57392C5.46689 1.49434 5.5116 1.3864 5.5116 1.27385C5.5116 1.1613 5.55632 1.05336 5.63591 0.973781C5.7155 0.894197 5.82345 0.849488 5.93601 0.849488C6.04856 0.849488 6.15651 0.804778 6.2361 0.725194C6.31569 0.645611 6.36041 0.537671 6.36041 0.425123C6.36041 0.312574 6.31569 0.204636 6.2361 0.125052C6.15651 0.0454682 6.04856 0.000758418 5.93601 0.000758418C5.59833 0.000758418 5.27448 0.134888 5.03571 0.373639C4.79694 0.612391 4.6628 0.936207 4.6628 1.27385C4.6628 1.3864 4.70751 1.49434 4.7871 1.57392C4.86669 1.65351 4.97464 1.69822 5.0872 1.69822Z" fill="#8B8B8B"/>
</svg>
