<svg width="53" height="57" viewBox="0 0 53 57" fill="none" xmlns="http://www.w3.org/2000/svg">
<path d="M52.1638 40.1649V19.69L36.768 13.9381V40.1649H52.1638Z" fill="#846B4D"/>
<path d="M18.0302 6.37638V20.6319L21.6253 19.2065L26.503 20.9837V40.3531H32.763V0.272736L18.0302 6.37638Z" fill="#CAA473"/>
<path d="M18.0181 20.6303V28.0543L13.0455 29.9396V22.5918L9.74809 23.8923V31.0223L4.77548 32.9061V25.8537L1.97537 26.9593V40.3514H21.6292V19.2049L18.0181 20.6303Z" fill="#3C7971"/>
<path d="M13.0205 54.4393C12.607 54.4393 12.2835 54.7561 12.2835 55.1368C12.2835 55.5175 12.607 55.8449 13.0205 55.8449C13.4341 55.8449 13.7576 55.5175 13.7576 55.1368C13.7576 54.7561 13.4229 54.4393 13.0205 54.4393Z" fill="#CAA473"/>
<path d="M15.0095 54.4393C14.5959 54.4393 14.2724 54.7561 14.2724 55.1368C14.2724 55.5175 14.5959 55.8449 15.0095 55.8449C15.4005 55.8449 15.7465 55.5175 15.7465 55.1368C15.7465 54.7561 15.4005 54.4393 15.0095 54.4393Z" fill="#CAA473"/>
<path d="M51.5959 48.3624V51.3762C51.5959 52.0523 51.1936 52.4224 50.6915 52.4224C50.1894 52.4224 49.7871 52.0523 49.7871 51.3762V48.3624H48.4804V51.3762C48.4804 52.0523 48.0894 52.4224 47.576 52.4224C47.0627 52.4224 46.6716 52.0523 46.6716 51.3762V48.3624H45.3762V51.4919C45.3762 52.0523 45.1187 52.4224 44.5941 52.4224H34.9981V50.9848C34.9981 49.5259 33.7461 48.3411 32.1931 48.3411H29.7792V52.4224H15.4472C14.9113 52.4224 14.6538 52.0523 14.6538 51.4919V48.3624L13.3584 48.3731V51.4919C13.3584 52.0523 13.1009 52.4224 12.5763 52.4224H7.41538C6.89076 52.4224 6.63328 52.0523 6.63328 51.4919V45.402H5.33783V52.9828C5.33783 54.125 4.55573 54.8438 3.595 54.8438C2.63427 54.8438 1.85217 54.125 1.85217 52.9828V49.4193H0.545456V52.9828C0.545456 54.8011 1.9085 56.0697 3.595 56.0697C5.1592 56.0697 6.44339 54.9701 6.62201 53.3315C6.80064 53.5326 7.06939 53.6483 7.41538 53.6483H12.5763C13.2361 53.6483 13.6931 53.394 14.0069 52.9721C14.3191 53.3955 14.7777 53.6483 15.4488 53.6483H29.7921C29.9031 55.2869 30.9427 56.292 32.3959 56.292C33.849 56.292 34.9208 55.2976 34.9884 53.6483H44.5957C45.278 53.6483 45.7576 53.3833 46.0488 52.9188C46.4061 53.394 46.9307 53.6483 47.5792 53.6483C48.2278 53.6483 48.7974 53.3742 49.1434 52.8549C49.4782 53.3727 50.0366 53.6483 50.6964 53.6483C51.9258 53.6483 52.8978 52.7498 52.9091 51.3747V48.3609H51.6024L51.5959 48.3624ZM33.6881 53.6376C33.6881 54.5575 33.1072 55.1072 32.3927 55.1072C31.6218 55.1072 31.1407 54.5894 31.0859 53.6483H31.8455C32.6952 53.6483 33.3534 53.3315 33.6897 52.8869V53.6376H33.6881ZM32.0789 52.4224H31.0731V49.567H32.1899C33.0171 49.567 33.6865 50.2021 33.6865 50.9833C33.6865 51.8391 33.0154 52.4209 32.0773 52.4209L32.0789 52.4224Z" fill="#CAA473"/>
<path d="M11.8456 45.9881C11.8456 45.5327 12.2366 45.1627 12.7065 45.1627C13.1764 45.1627 13.5787 45.5327 13.5787 45.9881C13.5787 46.4434 13.199 46.8135 12.7065 46.8135C12.2141 46.8135 11.8456 46.4541 11.8456 45.9881ZM13.0412 45.9881C13.0412 45.8084 12.8964 45.6713 12.7065 45.6713C12.5279 45.6713 12.3718 45.8084 12.3718 45.9881C12.3718 46.1678 12.5279 46.3048 12.7065 46.3048C12.8964 46.3048 13.0412 46.1678 13.0412 45.9881Z" fill="#CAA473"/>
<path d="M29.7626 46.9897V46.5146L32.4436 46.0699V46.5344L29.7626 46.9897Z" fill="#CAA473"/>
<path d="M46.2862 46.962V46.4975L47.638 46.2219C47.4932 46.1168 47.358 45.9265 47.358 45.6935C47.358 45.2808 47.704 44.964 48.1626 44.964C48.6213 44.964 49.001 45.3128 49.001 45.7468C49.001 46.1382 48.7436 46.4442 48.33 46.5295L46.2846 46.9635L46.2862 46.962ZM48.4652 45.7468C48.4652 45.5884 48.3316 45.462 48.1626 45.462C47.9936 45.462 47.8617 45.5884 47.8617 45.7468C47.8617 45.9052 47.9953 46.0422 48.1626 46.0422C48.33 46.0422 48.4652 45.9052 48.4652 45.7468Z" fill="#CAA473"/>
</svg>
