<svg width="206" height="48" viewBox="0 0 206 48" fill="none" xmlns="http://www.w3.org/2000/svg">
<g filter="url(#filter0_b_2_709)">
<rect width="206" height="48" rx="10" fill="white" fill-opacity="0.75"/>
<path d="M36.98 29V18.92H40.963C41.061 18.92 41.1777 18.9247 41.313 18.934C41.4483 18.9387 41.579 18.9527 41.705 18.976C42.251 19.06 42.7083 19.2467 43.077 19.536C43.4503 19.8253 43.7303 20.1917 43.917 20.635C44.1037 21.0737 44.197 21.5613 44.197 22.098C44.197 22.8773 43.994 23.554 43.588 24.128C43.182 24.6973 42.587 25.0543 41.803 25.199L41.327 25.276H38.226V29H36.98ZM42.979 29L40.991 24.898L42.223 24.52L44.407 29H42.979ZM38.226 24.093H40.921C41.0097 24.093 41.11 24.0883 41.222 24.079C41.3387 24.0697 41.4483 24.0533 41.551 24.03C41.873 23.9553 42.1343 23.82 42.335 23.624C42.5403 23.4233 42.6897 23.19 42.783 22.924C42.8763 22.6533 42.923 22.378 42.923 22.098C42.923 21.818 42.8763 21.545 42.783 21.279C42.6897 21.0083 42.5403 20.7727 42.335 20.572C42.1343 20.3713 41.873 20.236 41.551 20.166C41.4483 20.138 41.3387 20.1217 41.222 20.117C41.11 20.1077 41.0097 20.103 40.921 20.103H38.226V24.093ZM49.2248 29.21C48.4828 29.21 47.8341 29.0467 47.2788 28.72C46.7281 28.3887 46.2988 27.929 45.9908 27.341C45.6828 26.7483 45.5288 26.0577 45.5288 25.269C45.5288 24.443 45.6804 23.729 45.9838 23.127C46.2871 22.5203 46.7094 22.0537 47.2508 21.727C47.7968 21.3957 48.4361 21.23 49.1688 21.23C49.9294 21.23 50.5758 21.405 51.1078 21.755C51.6444 22.105 52.0458 22.6043 52.3118 23.253C52.5824 23.9017 52.6991 24.674 52.6618 25.57H51.4018V25.122C51.3878 24.1933 51.1988 23.5003 50.8348 23.043C50.4708 22.581 49.9294 22.35 49.2108 22.35C48.4408 22.35 47.8551 22.5973 47.4538 23.092C47.0524 23.5867 46.8518 24.296 46.8518 25.22C46.8518 26.1113 47.0524 26.802 47.4538 27.292C47.8551 27.782 48.4268 28.027 49.1688 28.027C49.6681 28.027 50.1021 27.9127 50.4708 27.684C50.8394 27.4553 51.1288 27.1263 51.3388 26.697L52.5358 27.11C52.2418 27.7773 51.7984 28.2953 51.2058 28.664C50.6178 29.028 49.9574 29.21 49.2248 29.21ZM46.4318 25.57V24.569H52.0178V25.57H46.4318ZM57.0762 29.203C56.1756 29.203 55.4359 29.007 54.8572 28.615C54.2832 28.2183 53.9309 27.6653 53.8002 26.956L55.0742 26.753C55.1769 27.1637 55.4126 27.4903 55.7812 27.733C56.1499 27.971 56.6072 28.09 57.1532 28.09C57.6712 28.09 58.0772 27.9827 58.3712 27.768C58.6652 27.5533 58.8122 27.2617 58.8122 26.893C58.8122 26.6783 58.7632 26.5057 58.6652 26.375C58.5672 26.2397 58.3642 26.1137 58.0562 25.997C57.7529 25.8803 57.2932 25.7403 56.6772 25.577C56.0099 25.3997 55.4849 25.2153 55.1022 25.024C54.7196 24.8327 54.4466 24.611 54.2832 24.359C54.1199 24.107 54.0382 23.8013 54.0382 23.442C54.0382 22.9987 54.1596 22.6113 54.4022 22.28C54.6449 21.944 54.9832 21.685 55.4172 21.503C55.8559 21.321 56.3646 21.23 56.9432 21.23C57.5172 21.23 58.0306 21.321 58.4832 21.503C58.9359 21.685 59.2999 21.944 59.5752 22.28C59.8552 22.6113 60.0209 22.9987 60.0722 23.442L58.7982 23.673C58.7376 23.267 58.5416 22.9473 58.2102 22.714C57.8836 22.4807 57.4612 22.357 56.9432 22.343C56.4532 22.3243 56.0542 22.4107 55.7462 22.602C55.4429 22.7933 55.2912 23.0523 55.2912 23.379C55.2912 23.561 55.3472 23.7173 55.4592 23.848C55.5759 23.9787 55.7882 24.1023 56.0962 24.219C56.4089 24.3357 56.8616 24.4687 57.4542 24.618C58.1216 24.786 58.6466 24.9703 59.0292 25.171C59.4166 25.367 59.6919 25.6003 59.8552 25.871C60.0186 26.137 60.1002 26.466 60.1002 26.858C60.1002 27.586 59.8319 28.16 59.2952 28.58C58.7586 28.9953 58.0189 29.203 57.0762 29.203ZM64.9201 29.21C64.1781 29.21 63.5294 29.0467 62.9741 28.72C62.4234 28.3887 61.9941 27.929 61.6861 27.341C61.3781 26.7483 61.2241 26.0577 61.2241 25.269C61.2241 24.443 61.3757 23.729 61.6791 23.127C61.9824 22.5203 62.4047 22.0537 62.9461 21.727C63.4921 21.3957 64.1314 21.23 64.8641 21.23C65.6247 21.23 66.2711 21.405 66.8031 21.755C67.3397 22.105 67.7411 22.6043 68.0071 23.253C68.2777 23.9017 68.3944 24.674 68.3571 25.57H67.0971V25.122C67.0831 24.1933 66.8941 23.5003 66.5301 23.043C66.1661 22.581 65.6247 22.35 64.9061 22.35C64.1361 22.35 63.5504 22.5973 63.1491 23.092C62.7477 23.5867 62.5471 24.296 62.5471 25.22C62.5471 26.1113 62.7477 26.802 63.1491 27.292C63.5504 27.782 64.1221 28.027 64.8641 28.027C65.3634 28.027 65.7974 27.9127 66.1661 27.684C66.5347 27.4553 66.8241 27.1263 67.0341 26.697L68.2311 27.11C67.9371 27.7773 67.4937 28.2953 66.9011 28.664C66.3131 29.028 65.6527 29.21 64.9201 29.21ZM62.1271 25.57V24.569H67.7131V25.57H62.1271ZM69.9155 29V21.44H71.0285V23.267L70.8465 23.029C70.9352 22.7957 71.0495 22.581 71.1895 22.385C71.3342 22.189 71.4952 22.028 71.6725 21.902C71.8685 21.7433 72.0902 21.622 72.3375 21.538C72.5849 21.454 72.8369 21.405 73.0935 21.391C73.3502 21.3723 73.5905 21.3887 73.8145 21.44V22.609C73.5532 22.539 73.2662 22.5203 72.9535 22.553C72.6409 22.5857 72.3515 22.7 72.0855 22.896C71.8429 23.0687 71.6539 23.2787 71.5185 23.526C71.3879 23.7733 71.2969 24.0417 71.2455 24.331C71.1942 24.6157 71.1685 24.9073 71.1685 25.206V29H69.9155ZM77.1822 29L74.4382 21.44H75.6982L77.8192 27.411L79.9332 21.44H81.2002L78.4562 29H77.1822ZM85.4689 29.21C84.7269 29.21 84.0782 29.0467 83.5229 28.72C82.9722 28.3887 82.5429 27.929 82.2349 27.341C81.9269 26.7483 81.7729 26.0577 81.7729 25.269C81.7729 24.443 81.9246 23.729 82.2279 23.127C82.5312 22.5203 82.9536 22.0537 83.4949 21.727C84.0409 21.3957 84.6802 21.23 85.4129 21.23C86.1736 21.23 86.8199 21.405 87.3519 21.755C87.8886 22.105 88.2899 22.6043 88.5559 23.253C88.8266 23.9017 88.9432 24.674 88.9059 25.57H87.6459V25.122C87.6319 24.1933 87.4429 23.5003 87.0789 23.043C86.7149 22.581 86.1736 22.35 85.4549 22.35C84.6849 22.35 84.0992 22.5973 83.6979 23.092C83.2966 23.5867 83.0959 24.296 83.0959 25.22C83.0959 26.1113 83.2966 26.802 83.6979 27.292C84.0992 27.782 84.6709 28.027 85.4129 28.027C85.9122 28.027 86.3462 27.9127 86.7149 27.684C87.0836 27.4553 87.3729 27.1263 87.5829 26.697L88.7799 27.11C88.4859 27.7773 88.0426 28.2953 87.4499 28.664C86.8619 29.028 86.2016 29.21 85.4689 29.21ZM82.6759 25.57V24.569H88.2619V25.57H82.6759ZM93.4324 29.21C92.7277 29.21 92.1234 29.035 91.6194 28.685C91.1154 28.3303 90.7257 27.852 90.4504 27.25C90.1797 26.648 90.0444 25.969 90.0444 25.213C90.0444 24.457 90.1797 23.778 90.4504 23.176C90.7257 22.574 91.1154 22.1003 91.6194 21.755C92.1234 21.405 92.7254 21.23 93.4254 21.23C94.1394 21.23 94.739 21.4027 95.2244 21.748C95.7097 22.0933 96.076 22.567 96.3234 23.169C96.5754 23.771 96.7014 24.4523 96.7014 25.213C96.7014 25.9643 96.5754 26.6433 96.3234 27.25C96.076 27.852 95.7097 28.3303 95.2244 28.685C94.739 29.035 94.1417 29.21 93.4324 29.21ZM93.5864 28.069C94.095 28.069 94.5127 27.9477 94.8394 27.705C95.166 27.4577 95.4064 27.1193 95.5604 26.69C95.719 26.256 95.7984 25.7637 95.7984 25.213C95.7984 24.653 95.719 24.1607 95.5604 23.736C95.4064 23.3067 95.1684 22.973 94.8464 22.735C94.5244 22.4923 94.116 22.371 93.6214 22.371C93.108 22.371 92.6834 22.497 92.3474 22.749C92.016 23.001 91.7687 23.3417 91.6054 23.771C91.4467 24.2003 91.3674 24.681 91.3674 25.213C91.3674 25.7497 91.449 26.235 91.6124 26.669C91.7757 27.0983 92.0207 27.439 92.3474 27.691C92.6787 27.943 93.0917 28.069 93.5864 28.069ZM95.7984 29V23.435H95.6584V18.92H96.9114V29H95.7984Z" fill="#1D2444"/>
<rect x="16" y="16" width="16" height="16" rx="4" fill="#F08324"/>
<path d="M131.28 29L134.654 18.92H136.39L139.764 29H138.469L135.312 19.648H135.704L132.575 29H131.28ZM132.904 26.641V25.472H138.14V26.641H132.904ZM142.501 29L139.757 21.44H141.017L143.138 27.411L145.252 21.44H146.519L143.775 29H142.501ZM149.51 29.21C148.945 29.21 148.472 29.1073 148.089 28.902C147.711 28.692 147.424 28.4167 147.228 28.076C147.037 27.7353 146.941 27.362 146.941 26.956C146.941 26.5593 147.016 26.2163 147.165 25.927C147.319 25.633 147.534 25.3903 147.809 25.199C148.084 25.003 148.413 24.849 148.796 24.737C149.155 24.639 149.557 24.555 150 24.485C150.448 24.4103 150.901 24.3427 151.358 24.282C151.815 24.2213 152.242 24.163 152.639 24.107L152.191 24.366C152.205 23.694 152.07 23.197 151.785 22.875C151.505 22.553 151.02 22.392 150.329 22.392C149.872 22.392 149.47 22.497 149.125 22.707C148.784 22.9123 148.544 23.2483 148.404 23.715L147.221 23.358C147.403 22.6953 147.755 22.175 148.278 21.797C148.801 21.419 149.489 21.23 150.343 21.23C151.029 21.23 151.617 21.3537 152.107 21.601C152.602 21.8437 152.956 22.2123 153.171 22.707C153.278 22.9403 153.346 23.1947 153.374 23.47C153.402 23.7407 153.416 24.0253 153.416 24.324V29H152.31V27.187L152.569 27.355C152.284 27.9663 151.885 28.4283 151.372 28.741C150.863 29.0537 150.243 29.21 149.51 29.21ZM149.699 28.167C150.147 28.167 150.534 28.0877 150.861 27.929C151.192 27.7657 151.458 27.5533 151.659 27.292C151.86 27.026 151.99 26.7367 152.051 26.424C152.121 26.1907 152.158 25.9317 152.163 25.647C152.172 25.3577 152.177 25.136 152.177 24.982L152.611 25.171C152.205 25.227 151.806 25.2807 151.414 25.332C151.022 25.3833 150.651 25.4393 150.301 25.5C149.951 25.556 149.636 25.6237 149.356 25.703C149.151 25.7683 148.957 25.8523 148.775 25.955C148.598 26.0577 148.453 26.1907 148.341 26.354C148.234 26.5127 148.18 26.711 148.18 26.949C148.18 27.1543 148.231 27.3503 148.334 27.537C148.441 27.7237 148.605 27.8753 148.824 27.992C149.048 28.1087 149.34 28.167 149.699 28.167ZM155.376 20.103V18.815H156.622V20.103H155.376ZM155.376 29V21.44H156.622V29H155.376ZM158.862 29V18.71H160.108V29H158.862ZM164.358 29.21C163.793 29.21 163.319 29.1073 162.937 28.902C162.559 28.692 162.272 28.4167 162.076 28.076C161.884 27.7353 161.789 27.362 161.789 26.956C161.789 26.5593 161.863 26.2163 162.013 25.927C162.167 25.633 162.381 25.3903 162.657 25.199C162.932 25.003 163.261 24.849 163.644 24.737C164.003 24.639 164.404 24.555 164.848 24.485C165.296 24.4103 165.748 24.3427 166.206 24.282C166.663 24.2213 167.09 24.163 167.487 24.107L167.039 24.366C167.053 23.694 166.917 23.197 166.633 22.875C166.353 22.553 165.867 22.392 165.177 22.392C164.719 22.392 164.318 22.497 163.973 22.707C163.632 22.9123 163.392 23.2483 163.252 23.715L162.069 23.358C162.251 22.6953 162.603 22.175 163.126 21.797C163.648 21.419 164.337 21.23 165.191 21.23C165.877 21.23 166.465 21.3537 166.955 21.601C167.449 21.8437 167.804 22.2123 168.019 22.707C168.126 22.9403 168.194 23.1947 168.222 23.47C168.25 23.7407 168.264 24.0253 168.264 24.324V29H167.158V27.187L167.417 27.355C167.132 27.9663 166.733 28.4283 166.22 28.741C165.711 29.0537 165.09 29.21 164.358 29.21ZM164.547 28.167C164.995 28.167 165.382 28.0877 165.709 27.929C166.04 27.7657 166.306 27.5533 166.507 27.292C166.707 27.026 166.838 26.7367 166.899 26.424C166.969 26.1907 167.006 25.9317 167.011 25.647C167.02 25.3577 167.025 25.136 167.025 24.982L167.459 25.171C167.053 25.227 166.654 25.2807 166.262 25.332C165.87 25.3833 165.499 25.4393 165.149 25.5C164.799 25.556 164.484 25.6237 164.204 25.703C163.998 25.7683 163.805 25.8523 163.623 25.955C163.445 26.0577 163.301 26.1907 163.189 26.354C163.081 26.5127 163.028 26.711 163.028 26.949C163.028 27.1543 163.079 27.3503 163.182 27.537C163.289 27.7237 163.452 27.8753 163.672 27.992C163.896 28.1087 164.187 28.167 164.547 28.167ZM173.556 29.21C172.846 29.21 172.249 29.035 171.764 28.685C171.278 28.3303 170.91 27.852 170.658 27.25C170.41 26.6433 170.287 25.9643 170.287 25.213C170.287 24.4523 170.41 23.771 170.658 23.169C170.91 22.567 171.278 22.0933 171.764 21.748C172.254 21.4027 172.853 21.23 173.563 21.23C174.263 21.23 174.865 21.405 175.369 21.755C175.877 22.1003 176.267 22.574 176.538 23.176C176.808 23.778 176.944 24.457 176.944 25.213C176.944 25.969 176.808 26.648 176.538 27.25C176.267 27.852 175.877 28.3303 175.369 28.685C174.865 29.035 174.26 29.21 173.556 29.21ZM170.077 29V18.92H171.33V23.435H171.19V29H170.077ZM173.402 28.069C173.901 28.069 174.314 27.943 174.641 27.691C174.967 27.439 175.212 27.0983 175.376 26.669C175.539 26.235 175.621 25.7497 175.621 25.213C175.621 24.681 175.539 24.2003 175.376 23.771C175.217 23.3417 174.97 23.001 174.634 22.749C174.302 22.497 173.88 22.371 173.367 22.371C172.877 22.371 172.471 22.4923 172.149 22.735C171.827 22.973 171.586 23.3067 171.428 23.736C171.269 24.1607 171.19 24.653 171.19 25.213C171.19 25.7637 171.267 26.256 171.421 26.69C171.579 27.1193 171.822 27.4577 172.149 27.705C172.475 27.9477 172.893 28.069 173.402 28.069ZM178.618 29V18.71H179.864V29H178.618ZM185.24 29.21C184.498 29.21 183.85 29.0467 183.294 28.72C182.744 28.3887 182.314 27.929 182.006 27.341C181.698 26.7483 181.544 26.0577 181.544 25.269C181.544 24.443 181.696 23.729 181.999 23.127C182.303 22.5203 182.725 22.0537 183.266 21.727C183.812 21.3957 184.452 21.23 185.184 21.23C185.945 21.23 186.591 21.405 187.123 21.755C187.66 22.105 188.061 22.6043 188.327 23.253C188.598 23.9017 188.715 24.674 188.677 25.57H187.417V25.122C187.403 24.1933 187.214 23.5003 186.85 23.043C186.486 22.581 185.945 22.35 185.226 22.35C184.456 22.35 183.871 22.5973 183.469 23.092C183.068 23.5867 182.867 24.296 182.867 25.22C182.867 26.1113 183.068 26.802 183.469 27.292C183.871 27.782 184.442 28.027 185.184 28.027C185.684 28.027 186.118 27.9127 186.486 27.684C186.855 27.4553 187.144 27.1263 187.354 26.697L188.551 27.11C188.257 27.7773 187.814 28.2953 187.221 28.664C186.633 29.028 185.973 29.21 185.24 29.21ZM182.447 25.57V24.569H188.033V25.57H182.447Z" fill="#1D2444"/>
<rect x="111" y="16" width="16" height="16" rx="4" fill="#27AE60"/>
</g>
<defs>
<filter id="filter0_b_2_709" x="-4" y="-4" width="214" height="56" filterUnits="userSpaceOnUse" color-interpolation-filters="sRGB">
<feFlood flood-opacity="0" result="BackgroundImageFix"/>
<feGaussianBlur in="BackgroundImageFix" stdDeviation="2"/>
<feComposite in2="SourceAlpha" operator="in" result="effect1_backgroundBlur_2_709"/>
<feBlend mode="normal" in="SourceGraphic" in2="effect1_backgroundBlur_2_709" result="shape"/>
</filter>
</defs>
</svg>
