<svg width="17" height="12" viewBox="0 0 17 12" fill="none" xmlns="http://www.w3.org/2000/svg">
<path fill-rule="evenodd" clip-rule="evenodd" d="M2.5 6C2.5 5.53976 2.8731 5.16667 3.33333 5.16667H13.3333C13.7936 5.16667 14.1667 5.53976 14.1667 6C14.1667 6.46024 13.7936 6.83333 13.3333 6.83333H3.33333C2.8731 6.83333 2.5 6.46024 2.5 6Z" fill="#454545"/>
<path fill-rule="evenodd" clip-rule="evenodd" d="M0 1C0 0.539763 0.373096 0.166667 0.833333 0.166667H15.8333C16.2936 0.166667 16.6667 0.539763 16.6667 1C16.6667 1.46024 16.2936 1.83333 15.8333 1.83333H0.833333C0.373096 1.83333 0 1.46024 0 1Z" fill="#454545"/>
<path fill-rule="evenodd" clip-rule="evenodd" d="M5 11C5 10.5398 5.3731 10.1667 5.83333 10.1667H10.8333C11.2936 10.1667 11.6667 10.5398 11.6667 11C11.6667 11.4602 11.2936 11.8333 10.8333 11.8333H5.83333C5.3731 11.8333 5 11.4602 5 11Z" fill="#454545"/>
</svg>
