<svg width="15" height="18" viewBox="0 0 15 18" fill="none" xmlns="http://www.w3.org/2000/svg">
<path d="M13.453 17.4967H13.4332L13.4308 17.4969C13.4253 17.4956 13.4158 17.4932 13.4019 17.4885C13.363 17.4754 13.3122 17.4526 13.253 17.4204C13.1431 17.3607 13.0385 17.2876 12.9779 17.2424L7.76562 12.6427L7.43848 12.354L7.10814 12.6391L1.77914 17.2373C1.77586 17.2395 1.77129 17.2425 1.76528 17.2463C1.74989 17.2561 1.72935 17.2686 1.70422 17.283C1.65383 17.3119 1.59046 17.3456 1.52166 17.3782C1.3809 17.4449 1.25949 17.4873 1.18766 17.4998C1.18753 17.4998 1.18739 17.4998 1.18726 17.4998C1.1737 17.4993 1.15277 17.4979 1.12416 17.4949C1.06707 17.489 0.995301 17.4787 0.919541 17.4656C0.844262 17.4526 0.770522 17.4378 0.710317 17.424C0.693221 17.4201 0.678733 17.4166 0.666672 17.4135C0.652337 17.3915 0.632559 17.362 0.60905 17.3305C0.582894 17.2956 0.553623 17.2606 0.533873 17.2369C0.531585 17.2342 0.529425 17.2316 0.527412 17.2292C0.516291 17.2158 0.507378 17.205 0.500001 17.1959V2.56057C0.500754 2.04047 0.740494 1.52366 1.19821 1.12962C1.65828 0.733544 2.29607 0.500686 2.97417 0.5H11.8954C12.5735 0.500686 13.2113 0.733544 13.6714 1.12962C14.1292 1.52374 14.3689 2.04067 14.3696 2.56087V17.1987C14.3572 17.2154 14.3402 17.2366 14.3178 17.262C14.2592 17.3284 14.1885 17.3958 14.1307 17.4477C14.1283 17.4482 14.1257 17.4488 14.123 17.4494C14.0717 17.4607 13.9986 17.4709 13.9097 17.4787C13.734 17.4942 13.5463 17.4967 13.453 17.4967ZM0.500001 17.2831V17.2816C0.500001 17.2821 0.500002 17.2826 0.500001 17.2831Z" fill="black" fill-opacity="0.4" stroke="white"/>
</svg>
